<?xml version="1.0" encoding="UTF-8" standalone="no"?>
<svg width="800px" height="800px" viewBox="0 0 800 800" version="1.1" xmlns="http://www.w3.org/2000/svg" xmlns:xlink="http://www.w3.org/1999/xlink" xmlns:sketch="http://www.bohemiancoding.com/sketch/ns">
    <!-- Generator: Sketch 3.2.2 (9983) - http://www.bohemiancoding.com/sketch -->
    <title>flat-color</title>
    <desc>Created with Sketch.</desc>
    <defs></defs>
    <g id="Page-2" stroke="none" stroke-width="1" fill="none" fill-rule="evenodd" sketch:type="MSPage">
        <g id="1024" sketch:type="MSArtboardGroup" transform="translate(-53.000000, -113.000000)">
            <circle id="Oval-1" fill="#353535" sketch:type="MSShapeGroup" cx="453" cy="513" r="400"></circle>
            <path d="M850.772868,470.537862 C852.245101,484.490549 853,498.657116 853,513 C853,733.9139 673.9139,913 453,913 C438.645301,913 424.467209,912.243857 410.503381,910.769228 L273.460938,774 L673.460938,293.521484 L850.772872,470.537899 Z" id="Oval-3" fill="#242424" sketch:type="MSShapeGroup"></path>
            <rect id="Rectangle-1" fill="#BD2034" sketch:type="MSShapeGroup" x="273" y="293" width="400" height="480"></rect>
            <rect id="Rectangle-13" fill="#CB2F42" sketch:type="MSShapeGroup" x="264" y="282" width="400" height="480"></rect>
            <rect id="Rectangle-12" fill="#E0485B" sketch:type="MSShapeGroup" x="253" y="273" width="400" height="480"></rect>
            <g id="Group" sketch:type="MSLayerGroup" transform="translate(333.000000, 473.000000)">
                <rect id="Rectangle-7" fill="#FFFFFF" sketch:type="MSShapeGroup" x="0" y="0" width="20" height="20"></rect>
                <rect id="Rectangle-8" fill="#FFFFFF" sketch:type="MSShapeGroup" x="0" y="40" width="20" height="20"></rect>
                <rect id="Rectangle-9" fill="#000000" sketch:type="MSShapeGroup" x="0" y="80" width="20" height="20"></rect>
                <rect id="Rectangle-10" fill="#FFFFFF" sketch:type="MSShapeGroup" x="0" y="120" width="20" height="20"></rect>
                <rect id="Rectangle-11" fill="#FFFFFF" sketch:type="MSShapeGroup" x="0" y="160" width="20" height="20"></rect>
                <rect id="Rectangle-2" fill="#FCFCFC" sketch:type="MSShapeGroup" x="40" y="0" width="200" height="20"></rect>
                <rect id="Rectangle-3" fill="#FCFCFC" sketch:type="MSShapeGroup" x="40" y="40" width="200" height="20"></rect>
                <rect id="Rectangle-4" fill="#000000" sketch:type="MSShapeGroup" x="40" y="80" width="200" height="20"></rect>
                <rect id="Rectangle-5" fill="#FCFCFC" sketch:type="MSShapeGroup" x="40" y="120" width="200" height="20"></rect>
                <rect id="Rectangle-6" fill="#FCFCFC" sketch:type="MSShapeGroup" x="40" y="160" width="200" height="20"></rect>
            </g>
            <text id="일몰사전" sketch:type="MSTextLayer" font-family="Apple SD Gothic Neo" font-size="70" font-weight="686" fill="#FFFFFF">
                <tspan x="328" y="388">일몰사전</tspan>
            </text>
            <g id="Rectangle-14-+-Rectangle-15-+-Rectangle-16" sketch:type="MSLayerGroup" transform="translate(547.000000, 264.000000)">
                <g id="Oval-4-+-Path-2-+-Path" transform="translate(28.000000, 25.000000)" sketch:type="MSShapeGroup">
                    <path d="M21,78 C32.045695,78 41,71.7319865 41,64 C41,56.2680135 32.045695,50 21,50 C9.954305,50 1,56.2680135 1,64 C1,71.7319865 9.954305,78 21,78 Z M21,75 C30.3888407,75 38,70.0751322 38,64 C38,57.9248678 30.3888407,53 21,53 C11.6111593,53 4,57.9248678 4,64 C4,70.0751322 11.6111593,75 21,75 Z" id="Oval-4" fill="#FFFFFF"></path>
                    <path d="M0,0 L42,0 L35.2281044,54 L6.76757812,54 L0,0 Z" id="Path-2" fill="#FFFFFF"></path>
                    <path d="M5,17 L37,17 L31.8404605,57 L10.15625,57 L5,17 Z" id="Path" fill="#E0485B"></path>
                </g>
                <rect id="Rectangle-16" fill="#207FC6" sketch:type="MSShapeGroup" x="0" y="0" width="98" height="9.2"></rect>
                <path d="M0.203143426,0 L98,0 L85.7593025,36.8 L12.9431647,36.8 L0.203143426,0 Z" id="Rectangle-14" fill="#57AEF0" sketch:type="MSShapeGroup"></path>
                <path d="M10.8332365,36.8 L87.3699069,36.8 L87.3699069,46 L10.8332365,46 L10.8332365,36.8 Z M27.8867925,42.32 L35.2830189,42.32 L35.2830189,46 L27.8867925,46 L27.8867925,42.32 Z M62.7169811,42.32 L70.1132075,42.32 L70.1132075,46 L62.7169811,46 L62.7169811,42.32 Z" id="Rectangle-16" fill="#B9D5EB" sketch:type="MSShapeGroup"></path>
            </g>
        </g>
    </g>
</svg>