<?xml version="1.0" encoding="UTF-8" standalone="no"?>
<svg width="3000px" height="1690px" viewBox="0 0 3000 1690" version="1.1" xmlns="http://www.w3.org/2000/svg" xmlns:xlink="http://www.w3.org/1999/xlink" xmlns:sketch="http://www.bohemiancoding.com/sketch/ns">
    <!-- Generator: Sketch 3.2.2 (9983) - http://www.bohemiancoding.com/sketch -->
    <title>일몰 </title>
    <desc>Created with Sketch.</desc>
    <defs></defs>
    <g id="Page-1" stroke="none" stroke-width="1" fill="none" fill-rule="evenodd" sketch:type="MSPage">
        <g id="180---iPhone-6-Plus" sketch:type="MSArtboardGroup" transform="translate(0.000000, -655.000000)" fill="#000000">
            <path d="M288.216005,1099.63768 C288.216005,1001.66667 357.9153,937.608696 457.754832,937.608696 C553.826833,937.608696 632.944952,1001.66667 632.944952,1097.75362 C632.944952,1199.49275 553.826833,1261.66667 457.754832,1261.66667 C357.9153,1261.66667 288.216005,1199.49275 288.216005,1099.63768 L288.216005,1099.63768 Z M0,1097.75362 C0,1333.26087 195.911533,1500.94203 457.754832,1500.94203 C723.36566,1500.94203 919.277192,1333.26087 919.277192,1099.63768 C919.277192,866.014493 723.36566,700.217391 457.754832,700.217391 C195.911533,700.217391 0,866.014493 0,1097.75362 L0,1097.75362 Z M1418.47485,2333.69565 L1418.47485,2100.07246 L518.035303,2100.07246 L518.035303,2036.01449 L1390.21838,2036.01449 L1390.21838,1548.04348 L222.284239,1548.04348 L222.284239,1772.24638 L1094.46731,1772.24638 L1094.46731,1834.42029 L222.284239,1834.42029 L222.284239,2333.69565 L1418.47485,2333.69565 Z M1390.21838,1483.98551 L1390.21838,655 L1092.58355,655 L1092.58355,1483.98551 L1390.21838,1483.98551 Z M3000,1548.04348 L3000,1320.07246 L2378.35764,1320.07246 L2378.35764,1244.71014 L2813.50729,1244.71014 L2813.50729,702.101449 L1651.22445,702.101449 L1651.22445,1244.71014 L2084.49034,1244.71014 L2084.49034,1320.07246 L1466.6155,1320.07246 L1466.6155,1548.04348 L3000,1548.04348 Z M2868.13647,2345 L2868.13647,2113.26087 L1916.83528,2113.26087 L1916.83528,2064.27536 L2821.04235,2064.27536 L2821.04235,1600.7971 L1624.85174,1600.7971 L1624.85174,1825 L2523.40752,1825 L2523.40752,1877.75362 L1622.96798,1877.75362 L1622.96798,2345 L2868.13647,2345 Z M2513.9887,1028.04348 L1946.97551,1028.04348 L1946.97551,924.42029 L2513.9887,924.42029 L2513.9887,1028.04348 Z" id="일몰-" sketch:type="MSShapeGroup"></path>
        </g>
    </g>
</svg>